<svg width="1115" height="516" xmlns="http://www.w3.org/2000/svg" xmlns:xlink="http://www.w3.org/1999/xlink" overflow="hidden"><defs><clipPath id="clip0"><path d="M81 133 1196 133 1196 649 81 649Z" fill-rule="evenodd" clip-rule="evenodd"/></clipPath></defs><g clip-path="url(#clip0)" transform="translate(-81 -133)"><rect x="423" y="155" width="100" height="36" stroke="#000000" stroke-width="1.86667" stroke-miterlimit="8" fill="none"/><text fill="#262626" font-family="DengXian,DengXian_MSFontService,sans-serif" font-weight="400" font-size="24" transform="translate(443.885 180)">开始</text><rect x="254" y="224" width="437" height="62" stroke="#000000" stroke-width="1.86667" stroke-miterlimit="8" fill="none"/><text fill="#262626" font-family="DengXian,DengXian_MSFontService,sans-serif" font-weight="400" font-size="24" transform="translate(270.285 248)">将十六进制数载入到通用寄存器<tspan x="157.787" y="29">DX:AX</tspan></text><rect x="382" y="322" width="181" height="62" stroke="#000000" stroke-width="1.86667" stroke-miterlimit="8" fill="none"/><text fill="#262626" font-family="Segoe UI Emoji,Segoe UI Emoji_MSFontService,sans-serif" font-weight="400" font-size="24" transform="translate(386.085 362)">➗<tspan font-family="DengXian,DengXian_MSFontService,sans-serif" x="37.9333" y="0">10</tspan><tspan font-family="DengXian,DengXian_MSFontService,sans-serif" x="73.1333" y="0">（</tspan><tspan font-family="DengXian,DengXian_MSFontService,sans-serif" x="102.067" y="0">0AH)</tspan></text><rect x="324" y="420" width="298" height="63" stroke="#000000" stroke-width="1.86667" stroke-miterlimit="8" fill="none"/><text fill="#262626" font-family="DengXian,DengXian_MSFontService,sans-serif" font-weight="400" font-size="24" transform="translate(357.085 445)">送出当前余数（到<tspan x="45.8333" y="29">HEX_BUF)</tspan></text><rect x="913" y="216" width="240" height="62" stroke="#000000" stroke-width="1.86667" stroke-miterlimit="8" fill="none"/><text fill="#262626" font-family="DengXian,DengXian_MSFontService,sans-serif" font-weight="400" font-size="24" transform="translate(925.363 240)">从<tspan x="28.9333" y="0">HEX_BUF</tspan><tspan x="156.8" y="0">读入</tspan><tspan x="63.1333" y="29">BCD</tspan><tspan x="122.6" y="29">码</tspan></text><path d="M473.833 191.5 473.833 218.2 473.167 218.2 473.167 191.5ZM477.5 216.867 473.5 224.867 469.5 216.867Z" fill="#4472C4"/><path d="M473.833 286.5 473.834 315.588 473.167 315.588 473.167 286.5ZM477.5 314.255 473.5 322.255 469.5 314.255Z" fill="#4472C4"/><path d="M339.5 577.5 473.5 519.5 607.5 577.5 473.5 635.5Z" stroke="#000000" stroke-width="1.33333" stroke-miterlimit="8" fill="none" fill-rule="evenodd"/><text font-family="DengXian,DengXian_MSFontService,sans-serif" font-weight="400" font-size="24" transform="translate(434.485 585)">商=0<tspan x="52.6667" y="0">？</tspan></text><rect x="883" y="338" width="299" height="62" stroke="#000000" stroke-width="1.86667" stroke-miterlimit="8" fill="none"/><text fill="#262626" font-family="DengXian,DengXian_MSFontService,sans-serif" font-weight="700" font-size="32" transform="translate(894.296 380)">＋<tspan font-weight="400" font-size="24" x="36.9333" y="0">30H</tspan><tspan font-weight="400" font-size="24" x="93.7333" y="0">送往</tspan><tspan font-weight="400" font-size="24" x="151.6" y="0">RES_AS</tspan><tspan font-weight="400" font-size="24" x="257.033" y="0">C</tspan></text><path d="M899.5 516 1033 457.5 1166.5 516 1033 574.5Z" stroke="#000000" stroke-width="1.33333" stroke-miterlimit="8" fill="none" fill-rule="evenodd"/><text font-family="DengXian,DengXian_MSFontService,sans-serif" font-weight="400" font-size="24" transform="translate(986.029 494)">HEX_BUF<tspan x="-1.33331" y="29">中元素已</tspan><tspan x="-1.33331" y="58">被读完？</tspan></text><rect x="95" y="420" width="142" height="63" stroke="#000000" stroke-width="1.86667" stroke-miterlimit="8" fill="none"/><text fill="#262626" font-family="DengXian,DengXian_MSFontService,sans-serif" font-weight="400" font-size="24" transform="translate(108.107 445)">将商送入<tspan x="13.1133" y="29">DX:A</tspan><tspan x="83.8467" y="29">X</tspan></text><rect x="708" y="306" width="143" height="126" stroke="#000000" stroke-width="1.86667" stroke-miterlimit="8" fill="none"/><text fill="#262626" font-family="DengXian,DengXian_MSFontService,sans-serif" font-weight="400" font-size="24" transform="translate(765.199 333)">从<tspan x="-41.2533" y="29">HEX_BU</tspan><tspan x="-37.1533" y="58">F</tspan><tspan x="-20.72" y="58">读入下</tspan><tspan x="-28.9333" y="87">个元素</tspan></text><path d="M0.333333-9.6617e-07 0.333419 29.5543-0.333248 29.5543-0.333333 9.6617e-07ZM4.00008 28.221 0.000104987 36.221-3.99992 28.221Z" fill="#4472C4" transform="matrix(-1 -8.74228e-08 -8.74228e-08 1 473.5 384.5)"/><path d="M473.833 483.5 473.833 513.054 473.167 513.054 473.167 483.5ZM477.5 511.721 473.5 519.721 469.5 511.721Z" fill="#4472C4"/><path d="M1033.83 278.5 1033.83 331.505 1033.17 331.505 1033.17 278.5ZM1037.5 330.171 1033.5 338.171 1029.5 330.171Z" fill="#4472C4"/><path d="M0.333333-6.10924e-07 0.333426 50.6165-0.333241 50.6165-0.333333 6.10924e-07ZM4.00009 49.2831 0.000104987 57.2831-3.99991 49.2832Z" fill="#4472C4" transform="matrix(-1 -8.74228e-08 -8.74228e-08 1 1033.5 400.5)"/><path d="M339.597 578.181 166.167 578.181 166.167 490.167 166.833 490.167 166.833 577.848 166.5 577.515 339.597 577.515ZM162.5 491.5 166.5 483.5 170.5 491.5Z" fill="#4472C4"/><path d="M166.167 420.794 166.167 304.167 466.678 304.167 466.678 304.833 166.5 304.833 166.833 304.5 166.833 420.794ZM465.344 300.5 473.344 304.5 465.344 308.5Z" fill="#4472C4"/><path d="M899.786 516.162 780.167 516.162 780.167 439.167 780.833 439.167 780.833 515.829 780.5 515.496 899.786 515.496ZM776.5 440.5 780.5 432.5 784.5 440.5Z" fill="#4472C4"/><path d="M780.167 306.692 780.167 295.167 1026.87 295.167 1026.87 295.833 780.5 295.833 780.833 295.5 780.833 306.692ZM1025.53 291.5 1033.53 295.5 1025.53 299.5Z" fill="#4472C4"/><path d="M0-0.333333 94.6785-0.333333 94.6785 385.069 94.3452 384.736 426.13 384.736 425.797 385.069 425.797 367.736 426.464 367.736 426.464 385.402 94.0119 385.402 94.0119 0 94.3452 0.333333 0 0.333333ZM422.13 369.069 426.13 361.069 430.13 369.069Z" fill="#4472C4" transform="matrix(1 0 0 -1 607.5 577.569)"/><rect x="983" y="602" width="99" height="36" stroke="#000000" stroke-width="1.86667" stroke-miterlimit="8" fill="none"/><text fill="#262626" font-family="DengXian,DengXian_MSFontService,sans-serif" font-weight="400" font-size="24" transform="translate(1003.76 628)">结束</text><path d="M1033.83 574.5 1033.83 594.666 1033.17 594.666 1033.17 574.5ZM1037.5 593.333 1033.5 601.333 1029.5 593.333Z" fill="#4472C4"/><text font-family="DengXian,DengXian_MSFontService,sans-serif" font-weight="400" font-size="24" transform="translate(275.989 565)">N<tspan x="365.064" y="1">Y</tspan><tspan x="574.82" y="-59">N</tspan><tspan x="766.307" y="22">Y</tspan></text><path d="M87.8667 641 87.8667 634.2 88.6222 634.2 88.6222 641ZM89.3778 641 89.3778 634.2 90.1333 634.2 90.1333 641ZM87.8667 631.933 87.8667 625.133 88.6222 625.133 88.6222 631.933ZM89.3778 631.933 89.3778 625.133 90.1333 625.133 90.1333 631.933ZM87.8667 622.867 87.8667 616.067 88.6222 616.067 88.6222 622.867ZM89.3778 622.867 89.3778 616.067 90.1333 616.067 90.1333 622.867ZM87.8667 613.8 87.8667 607 88.6222 607 88.6222 613.8ZM89.3778 613.8 89.3778 607 90.1333 607 90.1333 613.8ZM87.8667 604.733 87.8667 597.933 88.6222 597.933 88.6222 604.733ZM89.3778 604.733 89.3778 597.933 90.1333 597.933 90.1333 604.733ZM87.8667 595.667 87.8667 588.867 88.6222 588.867 88.6222 595.667ZM89.3778 595.667 89.3778 588.867 90.1333 588.867 90.1333 595.667ZM87.8667 586.6 87.8667 579.8 88.6222 579.8 88.6222 586.6ZM89.3778 586.6 89.3778 579.8 90.1333 579.8 90.1333 586.6ZM87.8667 577.533 87.8667 570.733 88.6222 570.733 88.6222 577.533ZM89.3778 577.533 89.3778 570.733 90.1333 570.733 90.1333 577.533ZM87.8667 568.467 87.8667 561.667 88.6222 561.667 88.6222 568.467ZM89.3778 568.467 89.3778 561.667 90.1333 561.667 90.1333 568.467ZM87.8667 559.4 87.8667 552.6 88.6222 552.6 88.6222 559.4ZM89.3778 559.4 89.3778 552.6 90.1333 552.6 90.1333 559.4ZM87.8667 550.333 87.8667 543.533 88.6222 543.533 88.6222 550.333ZM89.3778 550.333 89.3778 543.533 90.1333 543.533 90.1333 550.333ZM87.8667 541.267 87.8667 534.467 88.6222 534.467 88.6222 541.267ZM89.3778 541.267 89.3778 534.467 90.1333 534.467 90.1333 541.267ZM87.8667 532.2 87.8667 525.4 88.6222 525.4 88.6222 532.2ZM89.3778 532.2 89.3778 525.4 90.1333 525.4 90.1333 532.2ZM87.8667 523.133 87.8667 516.333 88.6222 516.333 88.6222 523.133ZM89.3778 523.133 89.3778 516.333 90.1333 516.333 90.1333 523.133ZM87.8667 514.067 87.8667 507.267 88.6222 507.267 88.6222 514.067ZM89.3778 514.067 89.3778 507.267 90.1333 507.267 90.1333 514.067ZM87.8667 505 87.8667 498.2 88.6222 498.2 88.6222 505ZM89.3778 505 89.3778 498.2 90.1333 498.2 90.1333 505ZM87.8667 495.933 87.8667 489.133 88.6222 489.133 88.6222 495.933ZM89.3778 495.933 89.3778 489.133 90.1333 489.133 90.1333 495.933ZM87.8667 486.867 87.8667 480.067 88.6222 480.067 88.6222 486.867ZM89.3778 486.867 89.3778 480.067 90.1333 480.067 90.1333 486.867ZM87.8667 477.8 87.8667 471 88.6222 471 88.6222 477.8ZM89.3778 477.8 89.3778 471 90.1333 471 90.1333 477.8ZM87.8667 468.733 87.8667 461.933 88.6222 461.933 88.6222 468.733ZM89.3778 468.733 89.3778 461.933 90.1333 461.933 90.1333 468.733ZM87.8667 459.667 87.8667 452.867 88.6222 452.867 88.6222 459.667ZM89.3778 459.667 89.3778 452.867 90.1333 452.867 90.1333 459.667ZM87.8667 450.6 87.8667 443.8 88.6222 443.8 88.6222 450.6ZM89.3778 450.6 89.3778 443.8 90.1333 443.8 90.1333 450.6ZM87.8667 441.533 87.8667 434.733 88.6222 434.733 88.6222 441.533ZM89.3778 441.533 89.3778 434.733 90.1333 434.733 90.1333 441.533ZM87.8667 432.467 87.8667 425.667 88.6222 425.667 88.6222 432.467ZM89.3778 432.467 89.3778 425.667 90.1333 425.667 90.1333 432.467ZM87.8667 423.4 87.8667 416.6 88.6222 416.6 88.6222 423.4ZM89.3778 423.4 89.3778 416.6 90.1333 416.6 90.1333 423.4ZM87.8667 414.333 87.8667 407.533 88.6222 407.533 88.6222 414.333ZM89.3778 414.333 89.3778 407.533 90.1333 407.533 90.1333 414.333ZM87.8667 405.267 87.8667 398.467 88.6222 398.467 88.6222 405.267ZM89.3778 405.267 89.3778 398.467 90.1333 398.467 90.1333 405.267ZM87.8667 396.2 87.8667 389.4 88.6222 389.4 88.6222 396.2ZM89.3778 396.2 89.3778 389.4 90.1333 389.4 90.1333 396.2ZM87.8667 387.133 87.8667 380.333 88.6222 380.333 88.6222 387.133ZM89.3778 387.133 89.3778 380.333 90.1333 380.333 90.1333 387.133ZM87.8667 378.067 87.8667 371.267 88.6222 371.267 88.6222 378.067ZM89.3778 378.067 89.3778 371.267 90.1333 371.267 90.1333 378.067ZM87.8667 369 87.8667 362.2 88.6222 362.2 88.6222 369ZM89.3778 369 89.3778 362.2 90.1333 362.2 90.1333 369ZM87.8667 359.933 87.8667 353.133 88.6222 353.133 88.6222 359.933ZM89.3778 359.933 89.3778 353.133 90.1333 353.133 90.1333 359.933ZM87.8667 350.867 87.8667 344.067 88.6222 344.067 88.6222 350.867ZM89.3778 350.867 89.3778 344.067 90.1333 344.067 90.1333 350.867ZM87.8667 341.8 87.8667 335 88.6222 335 88.6222 341.8ZM89.3778 341.8 89.3778 335 90.1333 335 90.1333 341.8ZM87.8667 332.733 87.8667 325.933 88.6222 325.933 88.6222 332.733ZM89.3778 332.733 89.3778 325.933 90.1333 325.933 90.1333 332.733ZM87.8667 323.667 87.8667 316.867 88.6222 316.867 88.6222 323.667ZM89.3778 323.667 89.3778 316.867 90.1333 316.867 90.1333 323.667ZM87.8667 314.6 87.8667 307.8 88.6222 307.8 88.6222 314.6ZM89.3778 314.6 89.3778 307.8 90.1333 307.8 90.1333 314.6ZM87.8667 305.533 87.8667 298.733 88.6222 298.733 88.6222 305.533ZM89.3778 305.533 89.3778 298.733 90.1333 298.733 90.1333 305.533ZM87.8667 296.467 87.8667 289.667 88.6222 289.667 88.6222 296.467ZM89.3778 296.467 89.3778 289.667 90.1333 289.667 90.1333 296.467ZM87.8667 287.4 87.8667 280.6 88.6222 280.6 88.6222 287.4ZM89.3778 287.4 89.3778 280.6 90.1333 280.6 90.1333 287.4ZM87.8667 278.333 87.8667 271.533 88.6222 271.533 88.6222 278.333ZM89.3778 278.333 89.3778 271.533 90.1333 271.533 90.1333 278.333ZM87.8667 269.267 87.8667 262.467 88.6222 262.467 88.6222 269.267ZM89.3778 269.267 89.3778 262.467 90.1333 262.467 90.1333 269.267ZM87.8667 260.2 87.8667 253.4 88.6222 253.4 88.6222 260.2ZM89.3778 260.2 89.3778 253.4 90.1333 253.4 90.1333 260.2ZM87.8667 251.133 87.8667 244.333 88.6222 244.333 88.6222 251.133ZM89.3778 251.133 89.3778 244.333 90.1333 244.333 90.1333 251.133ZM87.8667 242.067 87.8667 235.267 88.6222 235.267 88.6222 242.067ZM89.3778 242.067 89.3778 235.267 90.1333 235.267 90.1333 242.067ZM87.8667 233 87.8667 226.2 88.6222 226.2 88.6222 233ZM89.3778 233 89.3778 226.2 90.1333 226.2 90.1333 233ZM87.8667 223.933 87.8667 217.133 88.6222 217.133 88.6222 223.933ZM89.3778 223.933 89.3778 217.133 90.1333 217.133 90.1333 223.933ZM87.8667 214.867 87.8667 208.067 88.6222 208.067 88.6222 214.867ZM89.3778 214.867 89.3778 208.067 90.1333 208.067 90.1333 214.867ZM87.8667 205.8 87.8667 199 88.6222 199 88.6222 205.8ZM89.3778 205.8 89.3778 199 90.1333 199 90.1333 205.8ZM87.8667 196.733 87.8667 189.933 88.6222 189.933 88.6222 196.733ZM89.3778 196.733 89.3778 189.933 90.1333 189.933 90.1333 196.733ZM87.8667 187.667 87.8667 180.867 88.6222 180.867 88.6222 187.667ZM89.3778 187.667 89.3778 180.867 90.1333 180.867 90.1333 187.667ZM87.8667 178.6 87.8667 171.8 88.6222 171.8 88.6222 178.6ZM89.3778 178.6 89.3778 171.8 90.1333 171.8 90.1333 178.6ZM87.8667 169.533 87.8667 162.733 88.6222 162.733 88.6222 169.533ZM89.3778 169.533 89.3778 162.733 90.1333 162.733 90.1333 169.533ZM87.8667 160.467 87.8667 153.667 88.6222 153.667 88.6222 160.467ZM89.3778 160.467 89.3778 153.667 90.1333 153.667 90.1333 160.467ZM87.8667 151.4 87.8667 144.6 88.6222 144.6 88.6222 151.4ZM89.3778 151.4 89.3778 144.6 90.1333 144.6 90.1333 151.4ZM87.8667 142.333 87.8667 137.867 92.4667 137.867 92.4667 138.622 88.6222 138.622 88.6222 142.333ZM89.3778 142.333 89.3778 139.378 92.4667 139.378 92.4667 140.133 90.1333 140.133 90.1333 142.333ZM94.7333 137.867 101.533 137.867 101.533 138.622 94.7333 138.622ZM94.7333 139.378 101.533 139.378 101.533 140.133 94.7333 140.133ZM103.8 137.867 110.6 137.867 110.6 138.622 103.8 138.622ZM103.8 139.378 110.6 139.378 110.6 140.133 103.8 140.133ZM112.867 137.867 119.667 137.867 119.667 138.622 112.867 138.622ZM112.867 139.378 119.667 139.378 119.667 140.133 112.867 140.133ZM121.933 137.867 128.733 137.867 128.733 138.622 121.933 138.622ZM121.933 139.378 128.733 139.378 128.733 140.133 121.933 140.133ZM131 137.867 137.8 137.867 137.8 138.622 131 138.622ZM131 139.378 137.8 139.378 137.8 140.133 131 140.133ZM140.067 137.867 146.867 137.867 146.867 138.622 140.067 138.622ZM140.067 139.378 146.867 139.378 146.867 140.133 140.067 140.133ZM149.133 137.867 155.933 137.867 155.933 138.622 149.133 138.622ZM149.133 139.378 155.933 139.378 155.933 140.133 149.133 140.133ZM158.2 137.867 165 137.867 165 138.622 158.2 138.622ZM158.2 139.378 165 139.378 165 140.133 158.2 140.133ZM167.267 137.867 174.067 137.867 174.067 138.622 167.267 138.622ZM167.267 139.378 174.067 139.378 174.067 140.133 167.267 140.133ZM176.333 137.867 183.133 137.867 183.133 138.622 176.333 138.622ZM176.333 139.378 183.133 139.378 183.133 140.133 176.333 140.133ZM185.4 137.867 192.2 137.867 192.2 138.622 185.4 138.622ZM185.4 139.378 192.2 139.378 192.2 140.133 185.4 140.133ZM194.467 137.867 201.267 137.867 201.267 138.622 194.467 138.622ZM194.467 139.378 201.267 139.378 201.267 140.133 194.467 140.133ZM203.533 137.867 210.333 137.867 210.333 138.622 203.533 138.622ZM203.533 139.378 210.333 139.378 210.333 140.133 203.533 140.133ZM212.6 137.867 219.4 137.867 219.4 138.622 212.6 138.622ZM212.6 139.378 219.4 139.378 219.4 140.133 212.6 140.133ZM221.667 137.867 228.467 137.867 228.467 138.622 221.667 138.622ZM221.667 139.378 228.467 139.378 228.467 140.133 221.667 140.133ZM230.733 137.867 237.533 137.867 237.533 138.622 230.733 138.622ZM230.733 139.378 237.533 139.378 237.533 140.133 230.733 140.133ZM239.8 137.867 246.6 137.867 246.6 138.622 239.8 138.622ZM239.8 139.378 246.6 139.378 246.6 140.133 239.8 140.133ZM248.867 137.867 255.667 137.867 255.667 138.622 248.867 138.622ZM248.867 139.378 255.667 139.378 255.667 140.133 248.867 140.133ZM257.933 137.867 264.733 137.867 264.733 138.622 257.933 138.622ZM257.933 139.378 264.733 139.378 264.733 140.133 257.933 140.133ZM267 137.867 273.8 137.867 273.8 138.622 267 138.622ZM267 139.378 273.8 139.378 273.8 140.133 267 140.133ZM276.067 137.867 282.867 137.867 282.867 138.622 276.067 138.622ZM276.067 139.378 282.867 139.378 282.867 140.133 276.067 140.133ZM285.133 137.867 291.933 137.867 291.933 138.622 285.133 138.622ZM285.133 139.378 291.933 139.378 291.933 140.133 285.133 140.133ZM294.2 137.867 301 137.867 301 138.622 294.2 138.622ZM294.2 139.378 301 139.378 301 140.133 294.2 140.133ZM303.267 137.867 310.067 137.867 310.067 138.622 303.267 138.622ZM303.267 139.378 310.067 139.378 310.067 140.133 303.267 140.133ZM312.333 137.867 319.133 137.867 319.133 138.622 312.333 138.622ZM312.333 139.378 319.133 139.378 319.133 140.133 312.333 140.133ZM321.4 137.867 328.2 137.867 328.2 138.622 321.4 138.622ZM321.4 139.378 328.2 139.378 328.2 140.133 321.4 140.133ZM330.467 137.867 337.267 137.867 337.267 138.622 330.467 138.622ZM330.467 139.378 337.267 139.378 337.267 140.133 330.467 140.133ZM339.533 137.867 346.333 137.867 346.333 138.622 339.533 138.622ZM339.533 139.378 346.333 139.378 346.333 140.133 339.533 140.133ZM348.6 137.867 355.4 137.867 355.4 138.622 348.6 138.622ZM348.6 139.378 355.4 139.378 355.4 140.133 348.6 140.133ZM357.667 137.867 364.467 137.867 364.467 138.622 357.667 138.622ZM357.667 139.378 364.467 139.378 364.467 140.133 357.667 140.133ZM366.733 137.867 373.533 137.867 373.533 138.622 366.733 138.622ZM366.733 139.378 373.533 139.378 373.533 140.133 366.733 140.133ZM375.8 137.867 382.6 137.867 382.6 138.622 375.8 138.622ZM375.8 139.378 382.6 139.378 382.6 140.133 375.8 140.133ZM384.867 137.867 391.667 137.867 391.667 138.622 384.867 138.622ZM384.867 139.378 391.667 139.378 391.667 140.133 384.867 140.133ZM393.933 137.867 400.733 137.867 400.733 138.622 393.933 138.622ZM393.933 139.378 400.733 139.378 400.733 140.133 393.933 140.133ZM403 137.867 409.8 137.867 409.8 138.622 403 138.622ZM403 139.378 409.8 139.378 409.8 140.133 403 140.133ZM412.067 137.867 418.867 137.867 418.867 138.622 412.067 138.622ZM412.067 139.378 418.867 139.378 418.867 140.133 412.067 140.133ZM421.133 137.867 427.933 137.867 427.933 138.622 421.133 138.622ZM421.133 139.378 427.933 139.378 427.933 140.133 421.133 140.133ZM430.2 137.867 437 137.867 437 138.622 430.2 138.622ZM430.2 139.378 437 139.378 437 140.133 430.2 140.133ZM439.267 137.867 446.067 137.867 446.067 138.622 439.267 138.622ZM439.267 139.378 446.067 139.378 446.067 140.133 439.267 140.133ZM448.333 137.867 455.133 137.867 455.133 138.622 448.333 138.622ZM448.333 139.378 455.133 139.378 455.133 140.133 448.333 140.133ZM457.4 137.867 464.2 137.867 464.2 138.622 457.4 138.622ZM457.4 139.378 464.2 139.378 464.2 140.133 457.4 140.133ZM466.467 137.867 473.267 137.867 473.267 138.622 466.467 138.622ZM466.467 139.378 473.267 139.378 473.267 140.133 466.467 140.133ZM475.533 137.867 482.333 137.867 482.333 138.622 475.533 138.622ZM475.533 139.378 482.333 139.378 482.333 140.133 475.533 140.133ZM484.6 137.867 491.4 137.867 491.4 138.622 484.6 138.622ZM484.6 139.378 491.4 139.378 491.4 140.133 484.6 140.133ZM493.667 137.867 500.467 137.867 500.467 138.622 493.667 138.622ZM493.667 139.378 500.467 139.378 500.467 140.133 493.667 140.133ZM502.733 137.867 509.533 137.867 509.533 138.622 502.733 138.622ZM502.733 139.378 509.533 139.378 509.533 140.133 502.733 140.133ZM511.8 137.867 518.6 137.867 518.6 138.622 511.8 138.622ZM511.8 139.378 518.6 139.378 518.6 140.133 511.8 140.133ZM520.867 137.867 527.667 137.867 527.667 138.622 520.867 138.622ZM520.867 139.378 527.667 139.378 527.667 140.133 520.867 140.133ZM529.933 137.867 536.733 137.867 536.733 138.622 529.933 138.622ZM529.933 139.378 536.733 139.378 536.733 140.133 529.933 140.133ZM539 137.867 545.8 137.867 545.8 138.622 539 138.622ZM539 139.378 545.8 139.378 545.8 140.133 539 140.133ZM548.067 137.867 554.867 137.867 554.867 138.622 548.067 138.622ZM548.067 139.378 554.867 139.378 554.867 140.133 548.067 140.133ZM557.133 137.867 563.933 137.867 563.933 138.622 557.133 138.622ZM557.133 139.378 563.933 139.378 563.933 140.133 557.133 140.133ZM566.2 137.867 573 137.867 573 138.622 566.2 138.622ZM566.2 139.378 573 139.378 573 140.133 566.2 140.133ZM575.267 137.867 582.067 137.867 582.067 138.622 575.267 138.622ZM575.267 139.378 582.067 139.378 582.067 140.133 575.267 140.133ZM584.333 137.867 591.133 137.867 591.133 138.622 584.333 138.622ZM584.333 139.378 591.133 139.378 591.133 140.133 584.333 140.133ZM593.4 137.867 600.2 137.867 600.2 138.622 593.4 138.622ZM593.4 139.378 600.2 139.378 600.2 140.133 593.4 140.133ZM602.467 137.867 609.267 137.867 609.267 138.622 602.467 138.622ZM602.467 139.378 609.267 139.378 609.267 140.133 602.467 140.133ZM611.533 137.867 618.333 137.867 618.333 138.622 611.533 138.622ZM611.533 139.378 618.333 139.378 618.333 140.133 611.533 140.133ZM620.6 137.867 627.4 137.867 627.4 138.622 620.6 138.622ZM620.6 139.378 627.4 139.378 627.4 140.133 620.6 140.133ZM629.667 137.867 636.467 137.867 636.467 138.622 629.667 138.622ZM629.667 139.378 636.467 139.378 636.467 140.133 629.667 140.133ZM638.733 137.867 645.533 137.867 645.533 138.622 638.733 138.622ZM638.733 139.378 645.533 139.378 645.533 140.133 638.733 140.133ZM647.8 137.867 654.6 137.867 654.6 138.622 647.8 138.622ZM647.8 139.378 654.6 139.378 654.6 140.133 647.8 140.133ZM656.867 137.867 663.667 137.867 663.667 138.622 656.867 138.622ZM656.867 139.378 663.667 139.378 663.667 140.133 656.867 140.133ZM665.933 137.867 672.733 137.867 672.733 138.622 665.933 138.622ZM665.933 139.378 672.733 139.378 672.733 140.133 665.933 140.133ZM675 137.867 681.8 137.867 681.8 138.622 675 138.622ZM675 139.378 681.8 139.378 681.8 140.133 675 140.133ZM684.067 137.867 690.867 137.867 690.867 138.622 684.067 138.622ZM684.067 139.378 690.867 139.378 690.867 140.133 684.067 140.133ZM693.133 137.867 695.133 137.867 695.133 144.933 694.378 144.933 694.378 138.622 693.133 138.622ZM693.133 139.378 693.622 139.378 693.622 144.933 692.867 144.933 692.867 140.133 692.867 140.133ZM695.133 147.2 695.133 154 694.378 154 694.378 147.2ZM693.622 147.2 693.622 154 692.867 154 692.867 147.2ZM695.133 156.267 695.133 163.067 694.378 163.067 694.378 156.267ZM693.622 156.267 693.622 163.067 692.867 163.067 692.867 156.267ZM695.133 165.333 695.133 172.133 694.378 172.133 694.378 165.333ZM693.622 165.333 693.622 172.133 692.867 172.133 692.867 165.333ZM695.133 174.4 695.133 181.2 694.378 181.2 694.378 174.4ZM693.622 174.4 693.622 181.2 692.867 181.2 692.867 174.4ZM695.133 183.467 695.133 190.267 694.378 190.267 694.378 183.467ZM693.622 183.467 693.622 190.267 692.867 190.267 692.867 183.467ZM695.133 192.533 695.133 199.333 694.378 199.333 694.378 192.533ZM693.622 192.533 693.622 199.333 692.867 199.333 692.867 192.533ZM695.133 201.6 695.133 208.4 694.378 208.4 694.378 201.6ZM693.622 201.6 693.622 208.4 692.867 208.4 692.867 201.6ZM695.133 210.667 695.133 217.467 694.378 217.467 694.378 210.667ZM693.622 210.667 693.622 217.467 692.867 217.467 692.867 210.667ZM695.133 219.733 695.133 226.533 694.378 226.533 694.378 219.733ZM693.622 219.733 693.622 226.533 692.867 226.533 692.867 219.733ZM695.133 228.8 695.133 235.6 694.378 235.6 694.378 228.8ZM693.622 228.8 693.622 235.6 692.867 235.6 692.867 228.8ZM695.133 237.867 695.133 244.667 694.378 244.667 694.378 237.867ZM693.622 237.867 693.622 244.667 692.867 244.667 692.867 237.867ZM695.133 246.933 695.133 253.733 694.378 253.733 694.378 246.933ZM693.622 246.933 693.622 253.733 692.867 253.733 692.867 246.933ZM695.133 256 695.133 262.8 694.378 262.8 694.378 256ZM693.622 256 693.622 262.8 692.867 262.8 692.867 256ZM695.133 265.067 695.133 271.867 694.378 271.867 694.378 265.067ZM693.622 265.067 693.622 271.867 692.867 271.867 692.867 265.067ZM695.133 274.133 695.133 280.933 694.378 280.933 694.378 274.133ZM693.622 274.133 693.622 280.933 692.867 280.933 692.867 274.133ZM695.133 283.2 695.133 290 694.378 290 694.378 283.2ZM693.622 283.2 693.622 290 692.867 290 692.867 283.2ZM695.133 292.267 695.133 299.067 694.378 299.067 694.378 292.267ZM693.622 292.267 693.622 299.067 692.867 299.067 692.867 292.267ZM695.133 301.333 695.133 308.133 694.378 308.133 694.378 301.333ZM693.622 301.333 693.622 308.133 692.867 308.133 692.867 301.333ZM695.133 310.4 695.133 317.2 694.378 317.2 694.378 310.4ZM693.622 310.4 693.622 317.2 692.867 317.2 692.867 310.4ZM695.133 319.467 695.133 326.267 694.378 326.267 694.378 319.467ZM693.622 319.467 693.622 326.267 692.867 326.267 692.867 319.467ZM695.133 328.533 695.133 335.333 694.378 335.333 694.378 328.533ZM693.622 328.533 693.622 335.333 692.867 335.333 692.867 328.533ZM695.133 337.6 695.133 344.4 694.378 344.4 694.378 337.6ZM693.622 337.6 693.622 344.4 692.867 344.4 692.867 337.6ZM695.133 346.667 695.133 353.467 694.378 353.467 694.378 346.667ZM693.622 346.667 693.622 353.467 692.867 353.467 692.867 346.667ZM695.133 355.733 695.133 362.533 694.378 362.533 694.378 355.733ZM693.622 355.733 693.622 362.533 692.867 362.533 692.867 355.733ZM695.133 364.8 695.133 371.6 694.378 371.6 694.378 364.8ZM693.622 364.8 693.622 371.6 692.867 371.6 692.867 364.8ZM695.133 373.867 695.133 380.667 694.378 380.667 694.378 373.867ZM693.622 373.867 693.622 380.667 692.867 380.667 692.867 373.867ZM695.133 382.933 695.133 389.733 694.378 389.733 694.378 382.933ZM693.622 382.933 693.622 389.733 692.867 389.733 692.867 382.933ZM695.133 392 695.133 398.8 694.378 398.8 694.378 392ZM693.622 392 693.622 398.8 692.867 398.8 692.867 392ZM695.133 401.067 695.133 407.867 694.378 407.867 694.378 401.067ZM693.622 401.067 693.622 407.867 692.867 407.867 692.867 401.067ZM695.133 410.133 695.133 416.933 694.378 416.933 694.378 410.133ZM693.622 410.133 693.622 416.933 692.867 416.933 692.867 410.133ZM695.133 419.2 695.133 426 694.378 426 694.378 419.2ZM693.622 419.2 693.622 426 692.867 426 692.867 419.2ZM695.133 428.267 695.133 435.067 694.378 435.067 694.378 428.267ZM693.622 428.267 693.622 435.067 692.867 435.067 692.867 428.267ZM695.133 437.333 695.133 444.133 694.378 444.133 694.378 437.333ZM693.622 437.333 693.622 444.133 692.867 444.133 692.867 437.333ZM695.133 446.4 695.133 453.2 694.378 453.2 694.378 446.4ZM693.622 446.4 693.622 453.2 692.867 453.2 692.867 446.4ZM695.133 455.467 695.133 462.267 694.378 462.267 694.378 455.467ZM693.622 455.467 693.622 462.267 692.867 462.267 692.867 455.467ZM695.133 464.533 695.133 471.333 694.378 471.333 694.378 464.533ZM693.622 464.533 693.622 471.333 692.867 471.333 692.867 464.533ZM695.133 473.6 695.133 480.4 694.378 480.4 694.378 473.6ZM693.622 473.6 693.622 480.4 692.867 480.4 692.867 473.6ZM695.133 482.667 695.133 489.467 694.378 489.467 694.378 482.667ZM693.622 482.667 693.622 489.467 692.867 489.467 692.867 482.667ZM695.133 491.733 695.133 498.533 694.378 498.533 694.378 491.733ZM693.622 491.733 693.622 498.533 692.867 498.533 692.867 491.733ZM695.133 500.8 695.133 507.6 694.378 507.6 694.378 500.8ZM693.622 500.8 693.622 507.6 692.867 507.6 692.867 500.8ZM695.133 509.867 695.133 516.667 694.378 516.667 694.378 509.867ZM693.622 509.867 693.622 516.667 692.867 516.667 692.867 509.867ZM695.133 518.933 695.133 525.733 694.378 525.733 694.378 518.933ZM693.622 518.933 693.622 525.733 692.867 525.733 692.867 518.933ZM695.133 528 695.133 534.8 694.378 534.8 694.378 528ZM693.622 528 693.622 534.8 692.867 534.8 692.867 528ZM695.133 537.067 695.133 543.867 694.378 543.867 694.378 537.067ZM693.622 537.067 693.622 543.867 692.867 543.867 692.867 537.067ZM695.133 546.133 695.133 552.933 694.378 552.933 694.378 546.133ZM693.622 546.133 693.622 552.933 692.867 552.933 692.867 546.133ZM695.133 555.2 695.133 562 694.378 562 694.378 555.2ZM693.622 555.2 693.622 562 692.867 562 692.867 555.2ZM695.133 564.267 695.133 571.067 694.378 571.067 694.378 564.267ZM693.622 564.267 693.622 571.067 692.867 571.067 692.867 564.267ZM695.133 573.333 695.133 580.133 694.378 580.133 694.378 573.333ZM693.622 573.333 693.622 580.133 692.867 580.133 692.867 573.333ZM695.133 582.4 695.133 589.2 694.378 589.2 694.378 582.4ZM693.622 582.4 693.622 589.2 692.867 589.2 692.867 582.4ZM695.133 591.467 695.133 598.267 694.378 598.267 694.378 591.467ZM693.622 591.467 693.622 598.267 692.867 598.267 692.867 591.467ZM695.133 600.533 695.133 607.333 694.378 607.333 694.378 600.533ZM693.622 600.533 693.622 607.333 692.867 607.333 692.867 600.533ZM695.133 609.6 695.133 616.4 694.378 616.4 694.378 609.6ZM693.622 609.6 693.622 616.4 692.867 616.4 692.867 609.6ZM695.133 618.667 695.133 625.467 694.378 625.467 694.378 618.667ZM693.622 618.667 693.622 625.467 692.867 625.467 692.867 618.667ZM695.133 627.733 695.133 634.533 694.378 634.533 694.378 627.733ZM693.622 627.733 693.622 634.533 692.867 634.533 692.867 627.733ZM695.133 636.8 695.133 642.133 691.4 642.133 691.4 641.378 694.378 641.378 694.378 636.8ZM693.622 636.8 693.622 640.622 691.4 640.622 691.4 639.867 692.867 639.867 692.867 636.8ZM689.133 642.133 682.333 642.133 682.333 641.378 689.133 641.378ZM689.133 640.622 682.333 640.622 682.333 639.867 689.133 639.867ZM680.067 642.133 673.267 642.133 673.267 641.378 680.067 641.378ZM680.067 640.622 673.267 640.622 673.267 639.867 680.067 639.867ZM671 642.133 664.2 642.133 664.2 641.378 671 641.378ZM671 640.622 664.2 640.622 664.2 639.867 671 639.867ZM661.933 642.133 655.133 642.133 655.133 641.378 661.933 641.378ZM661.933 640.622 655.133 640.622 655.133 639.867 661.933 639.867ZM652.867 642.133 646.067 642.133 646.067 641.378 652.867 641.378ZM652.867 640.622 646.067 640.622 646.067 639.867 652.867 639.867ZM643.8 642.133 637 642.133 637 641.378 643.8 641.378ZM643.8 640.622 637 640.622 637 639.867 643.8 639.867ZM634.733 642.133 627.933 642.133 627.933 641.378 634.733 641.378ZM634.733 640.622 627.933 640.622 627.933 639.867 634.733 639.867ZM625.667 642.133 618.867 642.133 618.867 641.378 625.667 641.378ZM625.667 640.622 618.867 640.622 618.867 639.867 625.667 639.867ZM616.6 642.133 609.8 642.133 609.8 641.378 616.6 641.378ZM616.6 640.622 609.8 640.622 609.8 639.867 616.6 639.867ZM607.533 642.133 600.733 642.133 600.733 641.378 607.533 641.378ZM607.533 640.622 600.733 640.622 600.733 639.867 607.533 639.867ZM598.467 642.133 591.667 642.133 591.667 641.378 598.467 641.378ZM598.467 640.622 591.667 640.622 591.667 639.867 598.467 639.867ZM589.4 642.133 582.6 642.133 582.6 641.378 589.4 641.378ZM589.4 640.622 582.6 640.622 582.6 639.867 589.4 639.867ZM580.333 642.133 573.533 642.133 573.533 641.378 580.333 641.378ZM580.333 640.622 573.533 640.622 573.533 639.867 580.333 639.867ZM571.267 642.133 564.467 642.133 564.467 641.378 571.267 641.378ZM571.267 640.622 564.467 640.622 564.467 639.867 571.267 639.867ZM562.2 642.133 555.4 642.133 555.4 641.378 562.2 641.378ZM562.2 640.622 555.4 640.622 555.4 639.867 562.2 639.867ZM553.133 642.133 546.333 642.133 546.333 641.378 553.133 641.378ZM553.133 640.622 546.333 640.622 546.333 639.867 553.133 639.867ZM544.067 642.133 537.267 642.133 537.267 641.378 544.067 641.378ZM544.067 640.622 537.267 640.622 537.267 639.867 544.067 639.867ZM535 642.133 528.2 642.133 528.2 641.378 535 641.378ZM535 640.622 528.2 640.622 528.2 639.867 535 639.867ZM525.933 642.133 519.133 642.133 519.133 641.378 525.933 641.378ZM525.933 640.622 519.133 640.622 519.133 639.867 525.933 639.867ZM516.867 642.133 510.067 642.133 510.067 641.378 516.867 641.378ZM516.867 640.622 510.067 640.622 510.067 639.867 516.867 639.867ZM507.8 642.133 501 642.133 501 641.378 507.8 641.378ZM507.8 640.622 501 640.622 501 639.867 507.8 639.867ZM498.733 642.133 491.933 642.133 491.933 641.378 498.733 641.378ZM498.733 640.622 491.933 640.622 491.933 639.867 498.733 639.867ZM489.667 642.133 482.867 642.133 482.867 641.378 489.667 641.378ZM489.667 640.622 482.867 640.622 482.867 639.867 489.667 639.867ZM480.6 642.133 473.8 642.133 473.8 641.378 480.6 641.378ZM480.6 640.622 473.8 640.622 473.8 639.867 480.6 639.867ZM471.533 642.133 464.733 642.133 464.733 641.378 471.533 641.378ZM471.533 640.622 464.733 640.622 464.733 639.867 471.533 639.867ZM462.467 642.133 455.667 642.133 455.667 641.378 462.467 641.378ZM462.467 640.622 455.667 640.622 455.667 639.867 462.467 639.867ZM453.4 642.133 446.6 642.133 446.6 641.378 453.4 641.378ZM453.4 640.622 446.6 640.622 446.6 639.867 453.4 639.867ZM444.333 642.133 437.533 642.133 437.533 641.378 444.333 641.378ZM444.333 640.622 437.533 640.622 437.533 639.867 444.333 639.867ZM435.267 642.133 428.467 642.133 428.467 641.378 435.267 641.378ZM435.267 640.622 428.467 640.622 428.467 639.867 435.267 639.867ZM426.2 642.133 419.4 642.133 419.4 641.378 426.2 641.378ZM426.2 640.622 419.4 640.622 419.4 639.867 426.2 639.867ZM417.133 642.133 410.333 642.133 410.333 641.378 417.133 641.378ZM417.133 640.622 410.333 640.622 410.333 639.867 417.133 639.867ZM408.067 642.133 401.267 642.133 401.267 641.378 408.067 641.378ZM408.067 640.622 401.267 640.622 401.267 639.867 408.067 639.867ZM399 642.133 392.2 642.133 392.2 641.378 399 641.378ZM399 640.622 392.2 640.622 392.2 639.867 399 639.867ZM389.933 642.133 383.133 642.133 383.133 641.378 389.933 641.378ZM389.933 640.622 383.133 640.622 383.133 639.867 389.933 639.867ZM380.867 642.133 374.067 642.133 374.067 641.378 380.867 641.378ZM380.867 640.622 374.067 640.622 374.067 639.867 380.867 639.867ZM371.8 642.133 365 642.133 365 641.378 371.8 641.378ZM371.8 640.622 365 640.622 365 639.867 371.8 639.867ZM362.733 642.133 355.933 642.133 355.933 641.378 362.733 641.378ZM362.733 640.622 355.933 640.622 355.933 639.867 362.733 639.867ZM353.667 642.133 346.867 642.133 346.867 641.378 353.667 641.378ZM353.667 640.622 346.867 640.622 346.867 639.867 353.667 639.867ZM344.6 642.133 337.8 642.133 337.8 641.378 344.6 641.378ZM344.6 640.622 337.8 640.622 337.8 639.867 344.6 639.867ZM335.533 642.133 328.733 642.133 328.733 641.378 335.533 641.378ZM335.533 640.622 328.733 640.622 328.733 639.867 335.533 639.867ZM326.467 642.133 319.667 642.133 319.667 641.378 326.467 641.378ZM326.467 640.622 319.667 640.622 319.667 639.867 326.467 639.867ZM317.4 642.133 310.6 642.133 310.6 641.378 317.4 641.378ZM317.4 640.622 310.6 640.622 310.6 639.867 317.4 639.867ZM308.333 642.133 301.533 642.133 301.533 641.378 308.333 641.378ZM308.333 640.622 301.533 640.622 301.533 639.867 308.333 639.867ZM299.267 642.133 292.467 642.133 292.467 641.378 299.267 641.378ZM299.267 640.622 292.467 640.622 292.467 639.867 299.267 639.867ZM290.2 642.133 283.4 642.133 283.4 641.378 290.2 641.378ZM290.2 640.622 283.4 640.622 283.4 639.867 290.2 639.867ZM281.133 642.133 274.333 642.133 274.333 641.378 281.133 641.378ZM281.133 640.622 274.333 640.622 274.333 639.867 281.133 639.867ZM272.067 642.133 265.267 642.133 265.267 641.378 272.067 641.378ZM272.067 640.622 265.267 640.622 265.267 639.867 272.067 639.867ZM263 642.133 256.2 642.133 256.2 641.378 263 641.378ZM263 640.622 256.2 640.622 256.2 639.867 263 639.867ZM253.933 642.133 247.133 642.133 247.133 641.378 253.933 641.378ZM253.933 640.622 247.133 640.622 247.133 639.867 253.933 639.867ZM244.867 642.133 238.067 642.133 238.067 641.378 244.867 641.378ZM244.867 640.622 238.067 640.622 238.067 639.867 244.867 639.867ZM235.8 642.133 229 642.133 229 641.378 235.8 641.378ZM235.8 640.622 229 640.622 229 639.867 235.8 639.867ZM226.733 642.133 219.933 642.133 219.933 641.378 226.733 641.378ZM226.733 640.622 219.933 640.622 219.933 639.867 226.733 639.867ZM217.667 642.133 210.867 642.133 210.867 641.378 217.667 641.378ZM217.667 640.622 210.867 640.622 210.867 639.867 217.667 639.867ZM208.6 642.133 201.8 642.133 201.8 641.378 208.6 641.378ZM208.6 640.622 201.8 640.622 201.8 639.867 208.6 639.867ZM199.533 642.133 192.733 642.133 192.733 641.378 199.533 641.378ZM199.533 640.622 192.733 640.622 192.733 639.867 199.533 639.867ZM190.467 642.133 183.667 642.133 183.667 641.378 190.467 641.378ZM190.467 640.622 183.667 640.622 183.667 639.867 190.467 639.867ZM181.4 642.133 174.6 642.133 174.6 641.378 181.4 641.378ZM181.4 640.622 174.6 640.622 174.6 639.867 181.4 639.867ZM172.333 642.133 165.533 642.133 165.533 641.378 172.333 641.378ZM172.333 640.622 165.533 640.622 165.533 639.867 172.333 639.867ZM163.267 642.133 156.467 642.133 156.467 641.378 163.267 641.378ZM163.267 640.622 156.467 640.622 156.467 639.867 163.267 639.867ZM154.2 642.133 147.4 642.133 147.4 641.378 154.2 641.378ZM154.2 640.622 147.4 640.622 147.4 639.867 154.2 639.867ZM145.133 642.133 138.333 642.133 138.333 641.378 145.133 641.378ZM145.133 640.622 138.333 640.622 138.333 639.867 145.133 639.867ZM136.067 642.133 129.267 642.133 129.267 641.378 136.067 641.378ZM136.067 640.622 129.267 640.622 129.267 639.867 136.067 639.867ZM127 642.133 120.2 642.133 120.2 641.378 127 641.378ZM127 640.622 120.2 640.622 120.2 639.867 127 639.867ZM117.933 642.133 111.133 642.133 111.133 641.378 117.933 641.378ZM117.933 640.622 111.133 640.622 111.133 639.867 117.933 639.867ZM108.867 642.133 102.067 642.133 102.067 641.378 108.867 641.378ZM108.867 640.622 102.067 640.622 102.067 639.867 108.867 639.867ZM99.8 642.133 93 642.133 93 641.378 99.8 641.378ZM99.8 640.622 93 640.622 93 639.867 99.8 639.867ZM90.7333 642.133 89 642.133 89 641.378 90.7333 641.378ZM90.7333 640.622 89 640.622 89 639.867 90.7333 639.867Z" fill="#8FAADC"/><path d="M695.867 642 695.867 635.2 696.622 635.2 696.622 642ZM697.378 642 697.378 635.2 698.133 635.2 698.133 642ZM695.867 632.933 695.867 626.133 696.622 626.133 696.622 632.933ZM697.378 632.933 697.378 626.133 698.133 626.133 698.133 632.933ZM695.867 623.867 695.867 617.067 696.622 617.067 696.622 623.867ZM697.378 623.867 697.378 617.067 698.133 617.067 698.133 623.867ZM695.867 614.8 695.867 608 696.622 608 696.622 614.8ZM697.378 614.8 697.378 608 698.133 608 698.133 614.8ZM695.867 605.733 695.867 598.933 696.622 598.933 696.622 605.733ZM697.378 605.733 697.378 598.933 698.133 598.933 698.133 605.733ZM695.867 596.667 695.867 589.867 696.622 589.867 696.622 596.667ZM697.378 596.667 697.378 589.867 698.133 589.867 698.133 596.667ZM695.867 587.6 695.867 580.8 696.622 580.8 696.622 587.6ZM697.378 587.6 697.378 580.8 698.133 580.8 698.133 587.6ZM695.867 578.533 695.867 571.733 696.622 571.733 696.622 578.533ZM697.378 578.533 697.378 571.733 698.133 571.733 698.133 578.533ZM695.867 569.467 695.867 562.667 696.622 562.667 696.622 569.467ZM697.378 569.467 697.378 562.667 698.133 562.667 698.133 569.467ZM695.867 560.4 695.867 553.6 696.622 553.6 696.622 560.4ZM697.378 560.4 697.378 553.6 698.133 553.6 698.133 560.4ZM695.867 551.333 695.867 544.533 696.622 544.533 696.622 551.333ZM697.378 551.333 697.378 544.533 698.133 544.533 698.133 551.333ZM695.867 542.267 695.867 535.467 696.622 535.467 696.622 542.267ZM697.378 542.267 697.378 535.467 698.133 535.467 698.133 542.267ZM695.867 533.2 695.867 526.4 696.622 526.4 696.622 533.2ZM697.378 533.2 697.378 526.4 698.133 526.4 698.133 533.2ZM695.867 524.133 695.867 517.333 696.622 517.333 696.622 524.133ZM697.378 524.133 697.378 517.333 698.133 517.333 698.133 524.133ZM695.867 515.067 695.867 508.267 696.622 508.267 696.622 515.067ZM697.378 515.067 697.378 508.267 698.133 508.267 698.133 515.067ZM695.867 506 695.867 499.2 696.622 499.2 696.622 506ZM697.378 506 697.378 499.2 698.133 499.2 698.133 506ZM695.867 496.933 695.867 490.133 696.622 490.133 696.622 496.933ZM697.378 496.933 697.378 490.133 698.133 490.133 698.133 496.933ZM695.867 487.867 695.867 481.067 696.622 481.067 696.622 487.867ZM697.378 487.867 697.378 481.067 698.133 481.067 698.133 487.867ZM695.867 478.8 695.867 472 696.622 472 696.622 478.8ZM697.378 478.8 697.378 472 698.133 472 698.133 478.8ZM695.867 469.733 695.867 462.933 696.622 462.933 696.622 469.733ZM697.378 469.733 697.378 462.933 698.133 462.933 698.133 469.733ZM695.867 460.667 695.867 453.867 696.622 453.867 696.622 460.667ZM697.378 460.667 697.378 453.867 698.133 453.867 698.133 460.667ZM695.867 451.6 695.867 444.8 696.622 444.8 696.622 451.6ZM697.378 451.6 697.378 444.8 698.133 444.8 698.133 451.6ZM695.867 442.533 695.867 435.733 696.622 435.733 696.622 442.533ZM697.378 442.533 697.378 435.733 698.133 435.733 698.133 442.533ZM695.867 433.467 695.867 426.667 696.622 426.667 696.622 433.467ZM697.378 433.467 697.378 426.667 698.133 426.667 698.133 433.467ZM695.867 424.4 695.867 417.6 696.622 417.6 696.622 424.4ZM697.378 424.4 697.378 417.6 698.133 417.6 698.133 424.4ZM695.867 415.333 695.867 408.533 696.622 408.533 696.622 415.333ZM697.378 415.333 697.378 408.533 698.133 408.533 698.133 415.333ZM695.867 406.267 695.867 399.467 696.622 399.467 696.622 406.267ZM697.378 406.267 697.378 399.467 698.133 399.467 698.133 406.267ZM695.867 397.2 695.867 390.4 696.622 390.4 696.622 397.2ZM697.378 397.2 697.378 390.4 698.133 390.4 698.133 397.2ZM695.867 388.133 695.867 381.333 696.622 381.333 696.622 388.133ZM697.378 388.133 697.378 381.333 698.133 381.333 698.133 388.133ZM695.867 379.067 695.867 372.267 696.622 372.267 696.622 379.067ZM697.378 379.067 697.378 372.267 698.133 372.267 698.133 379.067ZM695.867 370 695.867 363.2 696.622 363.2 696.622 370ZM697.378 370 697.378 363.2 698.133 363.2 698.133 370ZM695.867 360.933 695.867 354.133 696.622 354.133 696.622 360.933ZM697.378 360.933 697.378 354.133 698.133 354.133 698.133 360.933ZM695.867 351.867 695.867 345.067 696.622 345.067 696.622 351.867ZM697.378 351.867 697.378 345.067 698.133 345.067 698.133 351.867ZM695.867 342.8 695.867 336 696.622 336 696.622 342.8ZM697.378 342.8 697.378 336 698.133 336 698.133 342.8ZM695.867 333.733 695.867 326.933 696.622 326.933 696.622 333.733ZM697.378 333.733 697.378 326.933 698.133 326.933 698.133 333.733ZM695.867 324.667 695.867 317.867 696.622 317.867 696.622 324.667ZM697.378 324.667 697.378 317.867 698.133 317.867 698.133 324.667ZM695.867 315.6 695.867 308.8 696.622 308.8 696.622 315.6ZM697.378 315.6 697.378 308.8 698.133 308.8 698.133 315.6ZM695.867 306.533 695.867 299.733 696.622 299.733 696.622 306.533ZM697.378 306.533 697.378 299.733 698.133 299.733 698.133 306.533ZM695.867 297.467 695.867 290.667 696.622 290.667 696.622 297.467ZM697.378 297.467 697.378 290.667 698.133 290.667 698.133 297.467ZM695.867 288.4 695.867 281.6 696.622 281.6 696.622 288.4ZM697.378 288.4 697.378 281.6 698.133 281.6 698.133 288.4ZM695.867 279.333 695.867 272.533 696.622 272.533 696.622 279.333ZM697.378 279.333 697.378 272.533 698.133 272.533 698.133 279.333ZM695.867 270.267 695.867 263.467 696.622 263.467 696.622 270.267ZM697.378 270.267 697.378 263.467 698.133 263.467 698.133 270.267ZM695.867 261.2 695.867 254.4 696.622 254.4 696.622 261.2ZM697.378 261.2 697.378 254.4 698.133 254.4 698.133 261.2ZM695.867 252.133 695.867 245.333 696.622 245.333 696.622 252.133ZM697.378 252.133 697.378 245.333 698.133 245.333 698.133 252.133ZM695.867 243.067 695.867 236.267 696.622 236.267 696.622 243.067ZM697.378 243.067 697.378 236.267 698.133 236.267 698.133 243.067ZM695.867 234 695.867 227.2 696.622 227.2 696.622 234ZM697.378 234 697.378 227.2 698.133 227.2 698.133 234ZM695.867 224.933 695.867 218.133 696.622 218.133 696.622 224.933ZM697.378 224.933 697.378 218.133 698.133 218.133 698.133 224.933ZM695.867 215.867 695.867 209.067 696.622 209.067 696.622 215.867ZM697.378 215.867 697.378 209.067 698.133 209.067 698.133 215.867ZM695.867 206.8 695.867 200 696.622 200 696.622 206.8ZM697.378 206.8 697.378 200 698.133 200 698.133 206.8ZM695.867 197.733 695.867 190.933 696.622 190.933 696.622 197.733ZM697.378 197.733 697.378 190.933 698.133 190.933 698.133 197.733ZM695.867 188.667 695.867 181.867 696.622 181.867 696.622 188.667ZM697.378 188.667 697.378 181.867 698.133 181.867 698.133 188.667ZM695.867 179.6 695.867 172.8 696.622 172.8 696.622 179.6ZM697.378 179.6 697.378 172.8 698.133 172.8 698.133 179.6ZM695.867 170.533 695.867 163.733 696.622 163.733 696.622 170.533ZM697.378 170.533 697.378 163.733 698.133 163.733 698.133 170.533ZM695.867 161.467 695.867 154.667 696.622 154.667 696.622 161.467ZM697.378 161.467 697.378 154.667 698.133 154.667 698.133 161.467ZM695.867 152.4 695.867 145.6 696.622 145.6 696.622 152.4ZM697.378 152.4 697.378 145.6 698.133 145.6 698.133 152.4ZM695.867 143.333 695.867 137.867 699.467 137.867 699.467 138.622 696.622 138.622 696.622 143.333ZM697.378 143.333 697.378 139.378 699.467 139.378 699.467 140.133 698.133 140.133 698.133 143.333ZM701.733 137.867 708.533 137.867 708.533 138.622 701.733 138.622ZM701.733 139.378 708.533 139.378 708.533 140.133 701.733 140.133ZM710.8 137.867 717.6 137.867 717.6 138.622 710.8 138.622ZM710.8 139.378 717.6 139.378 717.6 140.133 710.8 140.133ZM719.867 137.867 726.667 137.867 726.667 138.622 719.867 138.622ZM719.867 139.378 726.667 139.378 726.667 140.133 719.867 140.133ZM728.933 137.867 735.733 137.867 735.733 138.622 728.933 138.622ZM728.933 139.378 735.733 139.378 735.733 140.133 728.933 140.133ZM738 137.867 744.8 137.867 744.8 138.622 738 138.622ZM738 139.378 744.8 139.378 744.8 140.133 738 140.133ZM747.067 137.867 753.867 137.867 753.867 138.622 747.067 138.622ZM747.067 139.378 753.867 139.378 753.867 140.133 747.067 140.133ZM756.133 137.867 762.933 137.867 762.933 138.622 756.133 138.622ZM756.133 139.378 762.933 139.378 762.933 140.133 756.133 140.133ZM765.2 137.867 772 137.867 772 138.622 765.2 138.622ZM765.2 139.378 772 139.378 772 140.133 765.2 140.133ZM774.267 137.867 781.067 137.867 781.067 138.622 774.267 138.622ZM774.267 139.378 781.067 139.378 781.067 140.133 774.267 140.133ZM783.333 137.867 790.133 137.867 790.133 138.622 783.333 138.622ZM783.333 139.378 790.133 139.378 790.133 140.133 783.333 140.133ZM792.4 137.867 799.2 137.867 799.2 138.622 792.4 138.622ZM792.4 139.378 799.2 139.378 799.2 140.133 792.4 140.133ZM801.467 137.867 808.267 137.867 808.267 138.622 801.467 138.622ZM801.467 139.378 808.267 139.378 808.267 140.133 801.467 140.133ZM810.533 137.867 817.333 137.867 817.333 138.622 810.533 138.622ZM810.533 139.378 817.333 139.378 817.333 140.133 810.533 140.133ZM819.6 137.867 826.4 137.867 826.4 138.622 819.6 138.622ZM819.6 139.378 826.4 139.378 826.4 140.133 819.6 140.133ZM828.667 137.867 835.467 137.867 835.467 138.622 828.667 138.622ZM828.667 139.378 835.467 139.378 835.467 140.133 828.667 140.133ZM837.733 137.867 844.533 137.867 844.533 138.622 837.733 138.622ZM837.733 139.378 844.533 139.378 844.533 140.133 837.733 140.133ZM846.8 137.867 853.6 137.867 853.6 138.622 846.8 138.622ZM846.8 139.378 853.6 139.378 853.6 140.133 846.8 140.133ZM855.867 137.867 862.667 137.867 862.667 138.622 855.867 138.622ZM855.867 139.378 862.667 139.378 862.667 140.133 855.867 140.133ZM864.933 137.867 871.733 137.867 871.733 138.622 864.933 138.622ZM864.933 139.378 871.733 139.378 871.733 140.133 864.933 140.133ZM874 137.867 880.8 137.867 880.8 138.622 874 138.622ZM874 139.378 880.8 139.378 880.8 140.133 874 140.133ZM883.067 137.867 889.867 137.867 889.867 138.622 883.067 138.622ZM883.067 139.378 889.867 139.378 889.867 140.133 883.067 140.133ZM892.133 137.867 898.933 137.867 898.933 138.622 892.133 138.622ZM892.133 139.378 898.933 139.378 898.933 140.133 892.133 140.133ZM901.2 137.867 908 137.867 908 138.622 901.2 138.622ZM901.2 139.378 908 139.378 908 140.133 901.2 140.133ZM910.267 137.867 917.067 137.867 917.067 138.622 910.267 138.622ZM910.267 139.378 917.067 139.378 917.067 140.133 910.267 140.133ZM919.333 137.867 926.133 137.867 926.133 138.622 919.333 138.622ZM919.333 139.378 926.133 139.378 926.133 140.133 919.333 140.133ZM928.4 137.867 935.2 137.867 935.2 138.622 928.4 138.622ZM928.4 139.378 935.2 139.378 935.2 140.133 928.4 140.133ZM937.467 137.867 944.267 137.867 944.267 138.622 937.467 138.622ZM937.467 139.378 944.267 139.378 944.267 140.133 937.467 140.133ZM946.533 137.867 953.333 137.867 953.333 138.622 946.533 138.622ZM946.533 139.378 953.333 139.378 953.333 140.133 946.533 140.133ZM955.6 137.867 962.4 137.867 962.4 138.622 955.6 138.622ZM955.6 139.378 962.4 139.378 962.4 140.133 955.6 140.133ZM964.667 137.867 971.467 137.867 971.467 138.622 964.667 138.622ZM964.667 139.378 971.467 139.378 971.467 140.133 964.667 140.133ZM973.733 137.867 980.533 137.867 980.533 138.622 973.733 138.622ZM973.733 139.378 980.533 139.378 980.533 140.133 973.733 140.133ZM982.8 137.867 989.6 137.867 989.6 138.622 982.8 138.622ZM982.8 139.378 989.6 139.378 989.6 140.133 982.8 140.133ZM991.867 137.867 998.667 137.867 998.667 138.622 991.867 138.622ZM991.867 139.378 998.667 139.378 998.667 140.133 991.867 140.133ZM1000.93 137.867 1007.73 137.867 1007.73 138.622 1000.93 138.622ZM1000.93 139.378 1007.73 139.378 1007.73 140.133 1000.93 140.133ZM1010 137.867 1016.8 137.867 1016.8 138.622 1010 138.622ZM1010 139.378 1016.8 139.378 1016.8 140.133 1010 140.133ZM1019.07 137.867 1025.87 137.867 1025.87 138.622 1019.07 138.622ZM1019.07 139.378 1025.87 139.378 1025.87 140.133 1019.07 140.133ZM1028.13 137.867 1034.93 137.867 1034.93 138.622 1028.13 138.622ZM1028.13 139.378 1034.93 139.378 1034.93 140.133 1028.13 140.133ZM1037.2 137.867 1044 137.867 1044 138.622 1037.2 138.622ZM1037.2 139.378 1044 139.378 1044 140.133 1037.2 140.133ZM1046.27 137.867 1053.07 137.867 1053.07 138.622 1046.27 138.622ZM1046.27 139.378 1053.07 139.378 1053.07 140.133 1046.27 140.133ZM1055.33 137.867 1062.13 137.867 1062.13 138.622 1055.33 138.622ZM1055.33 139.378 1062.13 139.378 1062.13 140.133 1055.33 140.133ZM1064.4 137.867 1071.2 137.867 1071.2 138.622 1064.4 138.622ZM1064.4 139.378 1071.2 139.378 1071.2 140.133 1064.4 140.133ZM1073.47 137.867 1080.27 137.867 1080.27 138.622 1073.47 138.622ZM1073.47 139.378 1080.27 139.378 1080.27 140.133 1073.47 140.133ZM1082.53 137.867 1089.33 137.867 1089.33 138.622 1082.53 138.622ZM1082.53 139.378 1089.33 139.378 1089.33 140.133 1082.53 140.133ZM1091.6 137.867 1098.4 137.867 1098.4 138.622 1091.6 138.622ZM1091.6 139.378 1098.4 139.378 1098.4 140.133 1091.6 140.133ZM1100.67 137.867 1107.47 137.867 1107.47 138.622 1100.67 138.622ZM1100.67 139.378 1107.47 139.378 1107.47 140.133 1100.67 140.133ZM1109.73 137.867 1116.53 137.867 1116.53 138.622 1109.73 138.622ZM1109.73 139.378 1116.53 139.378 1116.53 140.133 1109.73 140.133ZM1118.8 137.867 1125.6 137.867 1125.6 138.622 1118.8 138.622ZM1118.8 139.378 1125.6 139.378 1125.6 140.133 1118.8 140.133ZM1127.87 137.867 1134.67 137.867 1134.67 138.622 1127.87 138.622ZM1127.87 139.378 1134.67 139.378 1134.67 140.133 1127.87 140.133ZM1136.93 137.867 1143.73 137.867 1143.73 138.622 1136.93 138.622ZM1136.93 139.378 1143.73 139.378 1143.73 140.133 1136.93 140.133ZM1146 137.867 1152.8 137.867 1152.8 138.622 1146 138.622ZM1146 139.378 1152.8 139.378 1152.8 140.133 1146 140.133ZM1155.07 137.867 1161.87 137.867 1161.87 138.622 1155.07 138.622ZM1155.07 139.378 1161.87 139.378 1161.87 140.133 1155.07 140.133ZM1164.13 137.867 1170.93 137.867 1170.93 138.622 1164.13 138.622ZM1164.13 139.378 1170.93 139.378 1170.93 140.133 1164.13 140.133ZM1173.2 137.867 1180 137.867 1180 138.622 1173.2 138.622ZM1173.2 139.378 1180 139.378 1180 140.133 1173.2 140.133ZM1182.27 137.867 1189.07 137.867 1189.07 138.622 1182.27 138.622ZM1182.27 139.378 1189.07 139.378 1189.07 140.133 1182.27 140.133ZM1191.33 137.867 1195.13 137.867 1195.13 143.133 1194.38 143.133 1194.38 138.622 1191.33 138.622ZM1191.33 139.378 1193.62 139.378 1193.62 143.133 1192.87 143.133 1192.87 140.133 1191.33 140.133ZM1195.13 145.4 1195.13 152.2 1194.38 152.2 1194.38 145.4ZM1193.62 145.4 1193.62 152.2 1192.87 152.2 1192.87 145.4ZM1195.13 154.467 1195.13 161.267 1194.38 161.267 1194.38 154.467ZM1193.62 154.467 1193.62 161.267 1192.87 161.267 1192.87 154.467ZM1195.13 163.533 1195.13 170.333 1194.38 170.333 1194.38 163.533ZM1193.62 163.533 1193.62 170.333 1192.87 170.333 1192.87 163.533ZM1195.13 172.6 1195.13 179.4 1194.38 179.4 1194.38 172.6ZM1193.62 172.6 1193.62 179.4 1192.87 179.4 1192.87 172.6ZM1195.13 181.667 1195.13 188.467 1194.38 188.467 1194.38 181.667ZM1193.62 181.667 1193.62 188.467 1192.87 188.467 1192.87 181.667ZM1195.13 190.733 1195.13 197.533 1194.38 197.533 1194.38 190.733ZM1193.62 190.733 1193.62 197.533 1192.87 197.533 1192.87 190.733ZM1195.13 199.8 1195.13 206.6 1194.38 206.6 1194.38 199.8ZM1193.62 199.8 1193.62 206.6 1192.87 206.6 1192.87 199.8ZM1195.13 208.867 1195.13 215.667 1194.38 215.667 1194.38 208.867ZM1193.62 208.867 1193.62 215.667 1192.87 215.667 1192.87 208.867ZM1195.13 217.933 1195.13 224.733 1194.38 224.733 1194.38 217.933ZM1193.62 217.933 1193.62 224.733 1192.87 224.733 1192.87 217.933ZM1195.13 227 1195.13 233.8 1194.38 233.8 1194.38 227ZM1193.62 227 1193.62 233.8 1192.87 233.8 1192.87 227ZM1195.13 236.067 1195.13 242.867 1194.38 242.867 1194.38 236.067ZM1193.62 236.067 1193.62 242.867 1192.87 242.867 1192.87 236.067ZM1195.13 245.133 1195.13 251.933 1194.38 251.933 1194.38 245.133ZM1193.62 245.133 1193.62 251.933 1192.87 251.933 1192.87 245.133ZM1195.13 254.2 1195.13 261 1194.38 261 1194.38 254.2ZM1193.62 254.2 1193.62 261 1192.87 261 1192.87 254.2ZM1195.13 263.267 1195.13 270.067 1194.38 270.067 1194.38 263.267ZM1193.62 263.267 1193.62 270.067 1192.87 270.067 1192.87 263.267ZM1195.13 272.333 1195.13 279.133 1194.38 279.133 1194.38 272.333ZM1193.62 272.333 1193.62 279.133 1192.87 279.133 1192.87 272.333ZM1195.13 281.4 1195.13 288.2 1194.38 288.2 1194.38 281.4ZM1193.62 281.4 1193.62 288.2 1192.87 288.2 1192.87 281.4ZM1195.13 290.467 1195.13 297.267 1194.38 297.267 1194.38 290.467ZM1193.62 290.467 1193.62 297.267 1192.87 297.267 1192.87 290.467ZM1195.13 299.533 1195.13 306.333 1194.38 306.333 1194.38 299.533ZM1193.62 299.533 1193.62 306.333 1192.87 306.333 1192.87 299.533ZM1195.13 308.6 1195.13 315.4 1194.38 315.4 1194.38 308.6ZM1193.62 308.6 1193.62 315.4 1192.87 315.4 1192.87 308.6ZM1195.13 317.667 1195.13 324.467 1194.38 324.467 1194.38 317.667ZM1193.62 317.667 1193.62 324.467 1192.87 324.467 1192.87 317.667ZM1195.13 326.733 1195.13 333.533 1194.38 333.533 1194.38 326.733ZM1193.62 326.733 1193.62 333.533 1192.87 333.533 1192.87 326.733ZM1195.13 335.8 1195.13 342.6 1194.38 342.6 1194.38 335.8ZM1193.62 335.8 1193.62 342.6 1192.87 342.6 1192.87 335.8ZM1195.13 344.867 1195.13 351.667 1194.38 351.667 1194.38 344.867ZM1193.62 344.867 1193.62 351.667 1192.87 351.667 1192.87 344.867ZM1195.13 353.933 1195.13 360.733 1194.38 360.733 1194.38 353.933ZM1193.62 353.933 1193.62 360.733 1192.87 360.733 1192.87 353.933ZM1195.13 363 1195.13 369.8 1194.38 369.8 1194.38 363ZM1193.62 363 1193.62 369.8 1192.87 369.8 1192.87 363ZM1195.13 372.067 1195.13 378.867 1194.38 378.867 1194.38 372.067ZM1193.62 372.067 1193.62 378.867 1192.87 378.867 1192.87 372.067ZM1195.13 381.133 1195.13 387.933 1194.38 387.933 1194.38 381.133ZM1193.62 381.133 1193.62 387.933 1192.87 387.933 1192.87 381.133ZM1195.13 390.2 1195.13 397 1194.38 397 1194.38 390.2ZM1193.62 390.2 1193.62 397 1192.87 397 1192.87 390.2ZM1195.13 399.267 1195.13 406.067 1194.38 406.067 1194.38 399.267ZM1193.62 399.267 1193.62 406.067 1192.87 406.067 1192.87 399.267ZM1195.13 408.333 1195.13 415.133 1194.38 415.133 1194.38 408.333ZM1193.62 408.333 1193.62 415.133 1192.87 415.133 1192.87 408.333ZM1195.13 417.4 1195.13 424.2 1194.38 424.2 1194.38 417.4ZM1193.62 417.4 1193.62 424.2 1192.87 424.2 1192.87 417.4ZM1195.13 426.467 1195.13 433.267 1194.38 433.267 1194.38 426.467ZM1193.62 426.467 1193.62 433.267 1192.87 433.267 1192.87 426.467ZM1195.13 435.533 1195.13 442.333 1194.38 442.333 1194.38 435.533ZM1193.62 435.533 1193.62 442.333 1192.87 442.333 1192.87 435.533ZM1195.13 444.6 1195.13 451.4 1194.38 451.4 1194.38 444.6ZM1193.62 444.6 1193.62 451.4 1192.87 451.4 1192.87 444.6ZM1195.13 453.667 1195.13 460.467 1194.38 460.467 1194.38 453.667ZM1193.62 453.667 1193.62 460.467 1192.87 460.467 1192.87 453.667ZM1195.13 462.733 1195.13 469.533 1194.38 469.533 1194.38 462.733ZM1193.62 462.733 1193.62 469.533 1192.87 469.533 1192.87 462.733ZM1195.13 471.8 1195.13 478.6 1194.38 478.6 1194.38 471.8ZM1193.62 471.8 1193.62 478.6 1192.87 478.6 1192.87 471.8ZM1195.13 480.867 1195.13 487.667 1194.38 487.667 1194.38 480.867ZM1193.62 480.867 1193.62 487.667 1192.87 487.667 1192.87 480.867ZM1195.13 489.933 1195.13 496.733 1194.38 496.733 1194.38 489.933ZM1193.62 489.933 1193.62 496.733 1192.87 496.733 1192.87 489.933ZM1195.13 499 1195.13 505.8 1194.38 505.8 1194.38 499ZM1193.62 499 1193.62 505.8 1192.87 505.8 1192.87 499ZM1195.13 508.067 1195.13 514.867 1194.38 514.867 1194.38 508.067ZM1193.62 508.067 1193.62 514.867 1192.87 514.867 1192.87 508.067ZM1195.13 517.133 1195.13 523.933 1194.38 523.933 1194.38 517.133ZM1193.62 517.133 1193.62 523.933 1192.87 523.933 1192.87 517.133ZM1195.13 526.2 1195.13 533 1194.38 533 1194.38 526.2ZM1193.62 526.2 1193.62 533 1192.87 533 1192.87 526.2ZM1195.13 535.267 1195.13 542.067 1194.38 542.067 1194.38 535.267ZM1193.62 535.267 1193.62 542.067 1192.87 542.067 1192.87 535.267ZM1195.13 544.333 1195.13 551.133 1194.38 551.133 1194.38 544.333ZM1193.62 544.333 1193.62 551.133 1192.87 551.133 1192.87 544.333ZM1195.13 553.4 1195.13 560.2 1194.38 560.2 1194.38 553.4ZM1193.62 553.4 1193.62 560.2 1192.87 560.2 1192.87 553.4ZM1195.13 562.467 1195.13 569.267 1194.38 569.267 1194.38 562.467ZM1193.62 562.467 1193.62 569.267 1192.87 569.267 1192.87 562.467ZM1195.13 571.533 1195.13 578.333 1194.38 578.333 1194.38 571.533ZM1193.62 571.533 1193.62 578.333 1192.87 578.333 1192.87 571.533ZM1195.13 580.6 1195.13 587.4 1194.38 587.4 1194.38 580.6ZM1193.62 580.6 1193.62 587.4 1192.87 587.4 1192.87 580.6ZM1195.13 589.667 1195.13 596.467 1194.38 596.467 1194.38 589.667ZM1193.62 589.667 1193.62 596.467 1192.87 596.467 1192.87 589.667ZM1195.13 598.733 1195.13 605.533 1194.38 605.533 1194.38 598.733ZM1193.62 598.733 1193.62 605.533 1192.87 605.533 1192.87 598.733ZM1195.13 607.8 1195.13 614.6 1194.38 614.6 1194.38 607.8ZM1193.62 607.8 1193.62 614.6 1192.87 614.6 1192.87 607.8ZM1195.13 616.867 1195.13 623.667 1194.38 623.667 1194.38 616.867ZM1193.62 616.867 1193.62 623.667 1192.87 623.667 1192.87 616.867ZM1195.13 625.933 1195.13 632.733 1194.38 632.733 1194.38 625.933ZM1193.62 625.933 1193.62 632.733 1192.87 632.733 1192.87 625.933ZM1195.13 635 1195.13 641.8 1194.38 641.8 1194.38 635ZM1193.62 635 1193.62 641.8 1192.87 641.8 1192.87 635ZM1191.93 643.133 1185.13 643.133 1185.13 642.378 1191.93 642.378ZM1191.93 641.622 1185.13 641.622 1185.13 640.867 1191.93 640.867ZM1182.87 643.133 1176.07 643.133 1176.07 642.378 1182.87 642.378ZM1182.87 641.622 1176.07 641.622 1176.07 640.867 1182.87 640.867ZM1173.8 643.133 1167 643.133 1167 642.378 1173.8 642.378ZM1173.8 641.622 1167 641.622 1167 640.867 1173.8 640.867ZM1164.73 643.133 1157.93 643.133 1157.93 642.378 1164.73 642.378ZM1164.73 641.622 1157.93 641.622 1157.93 640.867 1164.73 640.867ZM1155.67 643.133 1148.87 643.133 1148.87 642.378 1155.67 642.378ZM1155.67 641.622 1148.87 641.622 1148.87 640.867 1155.67 640.867ZM1146.6 643.133 1139.8 643.133 1139.8 642.378 1146.6 642.378ZM1146.6 641.622 1139.8 641.622 1139.8 640.867 1146.6 640.867ZM1137.53 643.133 1130.73 643.133 1130.73 642.378 1137.53 642.378ZM1137.53 641.622 1130.73 641.622 1130.73 640.867 1137.53 640.867ZM1128.47 643.133 1121.67 643.133 1121.67 642.378 1128.47 642.378ZM1128.47 641.622 1121.67 641.622 1121.67 640.867 1128.47 640.867ZM1119.4 643.133 1112.6 643.133 1112.6 642.378 1119.4 642.378ZM1119.4 641.622 1112.6 641.622 1112.6 640.867 1119.4 640.867ZM1110.33 643.133 1103.53 643.133 1103.53 642.378 1110.33 642.378ZM1110.33 641.622 1103.53 641.622 1103.53 640.867 1110.33 640.867ZM1101.27 643.133 1094.47 643.133 1094.47 642.378 1101.27 642.378ZM1101.27 641.622 1094.47 641.622 1094.47 640.867 1101.27 640.867ZM1092.2 643.133 1085.4 643.133 1085.4 642.378 1092.2 642.378ZM1092.2 641.622 1085.4 641.622 1085.4 640.867 1092.2 640.867ZM1083.13 643.133 1076.33 643.133 1076.33 642.378 1083.13 642.378ZM1083.13 641.622 1076.33 641.622 1076.33 640.867 1083.13 640.867ZM1074.07 643.133 1067.27 643.133 1067.27 642.378 1074.07 642.378ZM1074.07 641.622 1067.27 641.622 1067.27 640.867 1074.07 640.867ZM1065 643.133 1058.2 643.133 1058.2 642.378 1065 642.378ZM1065 641.622 1058.2 641.622 1058.2 640.867 1065 640.867ZM1055.93 643.133 1049.13 643.133 1049.13 642.378 1055.93 642.378ZM1055.93 641.622 1049.13 641.622 1049.13 640.867 1055.93 640.867ZM1046.87 643.133 1040.07 643.133 1040.07 642.378 1046.87 642.378ZM1046.87 641.622 1040.07 641.622 1040.07 640.867 1046.87 640.867ZM1037.8 643.133 1031 643.133 1031 642.378 1037.8 642.378ZM1037.8 641.622 1031 641.622 1031 640.867 1037.8 640.867ZM1028.73 643.133 1021.93 643.133 1021.93 642.378 1028.73 642.378ZM1028.73 641.622 1021.93 641.622 1021.93 640.867 1028.73 640.867ZM1019.67 643.133 1012.87 643.133 1012.87 642.378 1019.67 642.378ZM1019.67 641.622 1012.87 641.622 1012.87 640.867 1019.67 640.867ZM1010.6 643.133 1003.8 643.133 1003.8 642.378 1010.6 642.378ZM1010.6 641.622 1003.8 641.622 1003.8 640.867 1010.6 640.867ZM1001.53 643.133 994.733 643.133 994.733 642.378 1001.53 642.378ZM1001.53 641.622 994.733 641.622 994.733 640.867 1001.53 640.867ZM992.467 643.133 985.667 643.133 985.667 642.378 992.467 642.378ZM992.467 641.622 985.667 641.622 985.667 640.867 992.467 640.867ZM983.4 643.133 976.6 643.133 976.6 642.378 983.4 642.378ZM983.4 641.622 976.6 641.622 976.6 640.867 983.4 640.867ZM974.333 643.133 967.533 643.133 967.533 642.378 974.333 642.378ZM974.333 641.622 967.533 641.622 967.533 640.867 974.333 640.867ZM965.267 643.133 958.467 643.133 958.467 642.378 965.267 642.378ZM965.267 641.622 958.467 641.622 958.467 640.867 965.267 640.867ZM956.2 643.133 949.4 643.133 949.4 642.378 956.2 642.378ZM956.2 641.622 949.4 641.622 949.4 640.867 956.2 640.867ZM947.133 643.133 940.333 643.133 940.333 642.378 947.133 642.378ZM947.133 641.622 940.333 641.622 940.333 640.867 947.133 640.867ZM938.067 643.133 931.267 643.133 931.267 642.378 938.067 642.378ZM938.067 641.622 931.267 641.622 931.267 640.867 938.067 640.867ZM929 643.133 922.2 643.133 922.2 642.378 929 642.378ZM929 641.622 922.2 641.622 922.2 640.867 929 640.867ZM919.933 643.133 913.133 643.133 913.133 642.378 919.933 642.378ZM919.933 641.622 913.133 641.622 913.133 640.867 919.933 640.867ZM910.867 643.133 904.067 643.133 904.067 642.378 910.867 642.378ZM910.867 641.622 904.067 641.622 904.067 640.867 910.867 640.867ZM901.8 643.133 895 643.133 895 642.378 901.8 642.378ZM901.8 641.622 895 641.622 895 640.867 901.8 640.867ZM892.733 643.133 885.933 643.133 885.933 642.378 892.733 642.378ZM892.733 641.622 885.933 641.622 885.933 640.867 892.733 640.867ZM883.667 643.133 876.867 643.133 876.867 642.378 883.667 642.378ZM883.667 641.622 876.867 641.622 876.867 640.867 883.667 640.867ZM874.6 643.133 867.8 643.133 867.8 642.378 874.6 642.378ZM874.6 641.622 867.8 641.622 867.8 640.867 874.6 640.867ZM865.533 643.133 858.733 643.133 858.733 642.378 865.533 642.378ZM865.533 641.622 858.733 641.622 858.733 640.867 865.533 640.867ZM856.467 643.133 849.667 643.133 849.667 642.378 856.467 642.378ZM856.467 641.622 849.667 641.622 849.667 640.867 856.467 640.867ZM847.4 643.133 840.6 643.133 840.6 642.378 847.4 642.378ZM847.4 641.622 840.6 641.622 840.6 640.867 847.4 640.867ZM838.333 643.133 831.533 643.133 831.533 642.378 838.333 642.378ZM838.333 641.622 831.533 641.622 831.533 640.867 838.333 640.867ZM829.267 643.133 822.467 643.133 822.467 642.378 829.267 642.378ZM829.267 641.622 822.467 641.622 822.467 640.867 829.267 640.867ZM820.2 643.133 813.4 643.133 813.4 642.378 820.2 642.378ZM820.2 641.622 813.4 641.622 813.4 640.867 820.2 640.867ZM811.133 643.133 804.333 643.133 804.333 642.378 811.133 642.378ZM811.133 641.622 804.333 641.622 804.333 640.867 811.133 640.867ZM802.067 643.133 795.267 643.133 795.267 642.378 802.067 642.378ZM802.067 641.622 795.267 641.622 795.267 640.867 802.067 640.867ZM793 643.133 786.2 643.133 786.2 642.378 793 642.378ZM793 641.622 786.2 641.622 786.2 640.867 793 640.867ZM783.933 643.133 777.133 643.133 777.133 642.378 783.933 642.378ZM783.933 641.622 777.133 641.622 777.133 640.867 783.933 640.867ZM774.867 643.133 768.067 643.133 768.067 642.378 774.867 642.378ZM774.867 641.622 768.067 641.622 768.067 640.867 774.867 640.867ZM765.8 643.133 759 643.133 759 642.378 765.8 642.378ZM765.8 641.622 759 641.622 759 640.867 765.8 640.867ZM756.733 643.133 749.933 643.133 749.933 642.378 756.733 642.378ZM756.733 641.622 749.933 641.622 749.933 640.867 756.733 640.867ZM747.667 643.133 740.867 643.133 740.867 642.378 747.667 642.378ZM747.667 641.622 740.867 641.622 740.867 640.867 747.667 640.867ZM738.6 643.133 731.8 643.133 731.8 642.378 738.6 642.378ZM738.6 641.622 731.8 641.622 731.8 640.867 738.6 640.867ZM729.533 643.133 722.733 643.133 722.733 642.378 729.533 642.378ZM729.533 641.622 722.733 641.622 722.733 640.867 729.533 640.867ZM720.467 643.133 713.667 643.133 713.667 642.378 720.467 642.378ZM720.467 641.622 713.667 641.622 713.667 640.867 720.467 640.867ZM711.4 643.133 704.6 643.133 704.6 642.378 711.4 642.378ZM711.4 641.622 704.6 641.622 704.6 640.867 711.4 640.867ZM702.333 643.133 697 643.133 697 642.378 702.333 642.378ZM702.333 641.622 697 641.622 697 640.867 702.333 640.867Z" fill="#8FAADC"/><rect x="86" y="139" width="143" height="62" fill="#DEEBF7" fill-opacity="0.458824"/><text fill="#262626" font-family="DengXian,DengXian_MSFontService,sans-serif" font-weight="400" font-size="24" transform="translate(96.116 163)">16<tspan x="35.2" y="0">进制数</tspan><tspan x="2.33334" y="29">转</tspan><tspan x="31.2667" y="29">BCD</tspan>码</text><rect x="697" y="140" width="143" height="62" fill="#DEEBF7" fill-opacity="0.458824"/><text fill="#262626" font-family="DengXian,DengXian_MSFontService,sans-serif" font-weight="400" font-size="24" transform="translate(709.931 164)">BCD<tspan x="59.4667" y="0">码转</tspan><tspan x="4.61334" y="29">ASCII</tspan><tspan x="83.78" y="29">码</tspan></text></g></svg>