<svg width="592" height="680" xmlns="http://www.w3.org/2000/svg" xmlns:xlink="http://www.w3.org/1999/xlink" overflow="hidden"><defs><clipPath id="clip0"><path d="M314 28 906 28 906 708 314 708Z" fill-rule="evenodd" clip-rule="evenodd"/></clipPath></defs><g clip-path="url(#clip0)" transform="translate(-314 -28)"><path d="M534.5 241.834C534.5 233.917 540.917 227.5 548.834 227.5L732.166 227.5C740.083 227.5 746.5 233.917 746.5 241.834L746.5 299.166C746.5 307.083 740.083 313.5 732.166 313.5L548.834 313.5C540.917 313.5 534.5 307.083 534.5 299.166Z" stroke="#000000" stroke-width="1.33333" stroke-miterlimit="8" fill="none" fill-rule="evenodd"/><text font-family="DengXian,DengXian_MSFontService,sans-serif" font-weight="400" font-size="24" transform="translate(559.583 263)">从BUF<tspan x="64.8333" y="0">中读入下</tspan><tspan x="1.74664" y="29">一个无符号数</tspan>B</text><path d="M566.5 368.833C566.5 364.231 570.231 360.5 574.833 360.5L706.167 360.5C710.769 360.5 714.5 364.231 714.5 368.833L714.5 402.167C714.5 406.769 710.769 410.5 706.167 410.5L574.833 410.5C570.231 410.5 566.5 406.769 566.5 402.167Z" stroke="#000000" stroke-width="1.33333" stroke-miterlimit="8" fill="none" fill-rule="evenodd"/><text font-family="DengXian,DengXian_MSFontService,sans-serif" font-weight="400" font-size="24" transform="translate(609.333 393)">B&gt;AH</text><path d="M566.5 466.833C566.5 462.231 570.231 458.5 574.833 458.5L706.167 458.5C710.769 458.5 714.5 462.231 714.5 466.833L714.5 500.167C714.5 504.769 710.769 508.5 706.167 508.5L574.833 508.5C570.231 508.5 566.5 504.769 566.5 500.167Z" stroke="#000000" stroke-width="1.33333" stroke-miterlimit="8" fill="none" fill-rule="evenodd"/><text font-family="DengXian,DengXian_MSFontService,sans-serif" font-weight="400" font-size="24" transform="translate(604.583 490)">B<tspan font-family="Cambria Math,Cambria Math_MSFontService,sans-serif" x="13.3333" y="0">→</tspan><tspan font-family="Cambria Math,Cambria Math_MSFontService,sans-serif" x="33.5" y="0"> </tspan><tspan x="38.8333" y="0">AH</tspan></text><path d="M566.5 564.833C566.5 560.231 570.231 556.5 574.833 556.5L706.167 556.5C710.769 556.5 714.5 560.231 714.5 564.833L714.5 598.167C714.5 602.769 710.769 606.5 706.167 606.5L574.833 606.5C570.231 606.5 566.5 602.769 566.5 598.167Z" stroke="#000000" stroke-width="1.33333" stroke-miterlimit="8" fill="none" fill-rule="evenodd"/><text font-family="DengXian,DengXian_MSFontService,sans-serif" font-weight="400" font-size="24" transform="translate(612.083 588)">B&lt;AL</text><path d="M566.5 662.833C566.5 658.231 570.231 654.5 574.833 654.5L706.167 654.5C710.769 654.5 714.5 658.231 714.5 662.833L714.5 696.167C714.5 700.769 710.769 704.5 706.167 704.5L574.833 704.5C570.231 704.5 566.5 700.769 566.5 696.167Z" stroke="#000000" stroke-width="1.33333" stroke-miterlimit="8" fill="none" fill-rule="evenodd"/><text font-family="DengXian,DengXian_MSFontService,sans-serif" font-weight="400" font-size="24" transform="translate(607.333 686)">B<tspan font-family="Cambria Math,Cambria Math_MSFontService,sans-serif" x="13.3334" y="0">→</tspan><tspan font-family="Cambria Math,Cambria Math_MSFontService,sans-serif" x="33.5" y="0"> </tspan><tspan x="38.8334" y="0">AL</tspan></text><path d="M569.5 37.8336C569.5 33.2311 573.231 29.5001 577.834 29.5001L703.167 29.5001C707.769 29.5001 711.5 33.2311 711.5 37.8336L711.5 71.1665C711.5 75.769 707.769 79.5001 703.167 79.5001L577.834 79.5001C573.231 79.5001 569.5 75.769 569.5 71.1665Z" stroke="#000000" stroke-width="1.33333" stroke-miterlimit="8" fill="none" fill-rule="evenodd"/><text font-family="DengXian,DengXian_MSFontService,sans-serif" font-weight="400" font-size="24" transform="translate(616 62)">开始</text><path d="M503.5 118.667C503.5 111.947 508.947 106.5 515.667 106.5L765.333 106.5C772.053 106.5 777.5 111.947 777.5 118.667L777.5 167.333C777.5 174.053 772.053 179.5 765.333 179.5L515.667 179.5C508.947 179.5 503.5 174.053 503.5 167.333Z" stroke="#000000" stroke-width="1.33333" stroke-miterlimit="8" fill="none" fill-rule="evenodd"/><text font-family="DengXian,DengXian_MSFontService,sans-serif" font-weight="400" font-size="24" transform="translate(503.75 136)">AH, AL<tspan x="70.3333" y="0">分别为</tspan>MAX, MIN<tspan x="248.5" y="0">，</tspan><tspan x="7.83334" y="29">初始化为</tspan>BUF<tspan x="144.667" y="29">的首元素</tspan></text><path d="M640.833 179.5 640.833 220.833 640.167 220.833 640.167 179.5ZM644.5 219.5 640.5 227.5 636.5 219.5Z" fill="#4472C4"/><path d="M640.833 313.5 640.833 353.873 640.167 353.873 640.167 313.5ZM644.5 352.54 640.5 360.54 636.5 352.54Z" fill="#4472C4"/><path d="M640.833 410.5 640.833 451.833 640.167 451.833 640.167 410.5ZM644.5 450.5 640.5 458.5 636.5 450.5Z" fill="#4472C4"/><path d="M640.833 606.5 640.833 647.833 640.167 647.833 640.167 606.5ZM644.5 646.5 640.5 654.5 636.5 646.5Z" fill="#4472C4"/><path d="M0-0.333333 75.2133-0.333333 75.2133 196.174 7.99996 196.174 7.99996 195.507 74.88 195.507 74.5467 195.84 74.5467 0 74.88 0.333333 0 0.333333ZM9.33333 199.84 1.33333 195.84 9.33333 191.84Z" fill="#4472C4" transform="matrix(-1 -8.74228e-08 -8.74228e-08 1 567.833 385.5)"/><path d="M0-0.333333 55.8533-0.333333 55.8533 213.453 38.1867 213.453 38.1867 212.787 55.5199 212.787 55.1866 213.12 55.1866 0 55.5199 0.333333 0 0.333333ZM39.52 217.12 31.52 213.12 39.52 209.12Z" fill="#4472C4" transform="matrix(1 0 0 -1 714.5 483.62)"/><path d="M0-0.333333 191.213-0.333333 191.213 409.294 38.1867 409.294 38.1867 408.627 190.88 408.627 190.547 408.96 190.547 0 190.88 0.333333 0 0.333333ZM39.52 412.96 31.52 408.96 39.52 404.96Z" fill="#4472C4" transform="matrix(1 0 0 -1 714.5 679.46)"/><path d="M0-0.333333 125.933-0.333333 125.933 311.374 38.1866 311.374 38.1866 310.707 125.6 310.707 125.267 311.04 125.267 0 125.6 0.333333 0 0.333333ZM39.52 315.04 31.52 311.04 39.52 307.04Z" fill="#4472C4" transform="matrix(1 0 0 -1 714.5 581.54)"/><text font-family="DengXian,DengXian_MSFontService,sans-serif" font-weight="400" font-size="24" transform="translate(617.657 442)">Y<tspan x="0" y="197">Y</tspan><tspan x="-97.5266" y="-62">N</tspan><tspan x="119.193" y="125">N</tspan></text><path d="M316.5 251.667C316.5 246.604 320.604 242.5 325.667 242.5L406.333 242.5C411.396 242.5 415.5 246.604 415.5 251.667L415.5 288.333C415.5 293.396 411.396 297.5 406.333 297.5L325.667 297.5C320.604 297.5 316.5 293.396 316.5 288.333Z" stroke="#000000" stroke-width="1.33333" stroke-miterlimit="8" fill="none" fill-rule="evenodd"/><text font-family="DengXian,DengXian_MSFontService,sans-serif" font-weight="400" font-size="24" transform="translate(341.24 277)">结束</text><path d="M2.92899e-07-0.333333 112.813-0.333234 112.813 0.333432-2.92899e-07 0.333333ZM111.48-3.9999 119.48 0.000104987 111.48 4.0001Z" fill="#4472C4" transform="matrix(-1 -8.74228e-08 -8.74228e-08 1 534.98 270.5)"/><path d="M640.833 79.5001 640.833 99.9534 640.167 99.9534 640.167 79.5001ZM644.5 98.62 640.5 106.62 636.5 98.6201Z" fill="#4472C4"/></g></svg>